<?xml version="1.0" encoding="UTF-8" standalone="no"?>
<svg  width="32" height="44" viewBox="0 0 32 44" version="1.1" xmlns="http://www.w3.org/2000/svg">
  <defs
     id="defs61">
    <style
       id="style2">.cls-1,.cls-2,.cls-3,.cls-4,.cls-5,.cls-6{fill-rule:evenodd;}.cls-1{fill:url(#Degradado_sin_nombre_1560);}.cls-2{fill:url(#Degradado_sin_nombre_1273);}.cls-3{fill:url(#Degradado_sin_nombre_936);}.cls-4{fill:url(#GradientFill_6);}.cls-5{fill:url(#GradientFill_7);}.cls-6{fill:url(#GradientFill_8);}.cls-7{fill:url(#linear-gradient);}</style>
    <linearGradient
       gradientUnits="userSpaceOnUse"
       y2="2.79"
       x2="25.12"
       y1="36.87"
       x1="6.22"
       id="Degradado_sin_nombre_1560">
      <stop
         id="stop4"
         stop-color="#434142"
         offset="0" />
      <stop
         id="stop6"
         stop-color="#D7D8DC"
         offset="0.49" />
      <stop
         id="stop8"
         stop-color="#fff"
         offset="1" />
    </linearGradient>
    <radialGradient
       gradientUnits="userSpaceOnUse"
       r="24.53"
       fy="16.37289847146558"
       fx="-2.462817564228409"
       cy="24.88"
       cx="20.55"
       id="Degradado_sin_nombre_1273">
      <stop
         id="stop11"
         stop-color="#b6c62c"
         offset="0" />
      
      <stop
         id="stop15"
         stop-color="#D7D8DC"
         offset="0" />
      <stop
         id="stop17"
         stop-color="#434142"
         offset="1" />
    </radialGradient>
    <linearGradient
       gradientUnits="userSpaceOnUse"
       y2="29.28"
       x2="8.21"
       y1="7.92"
       x1="24.31"
       id="Degradado_sin_nombre_936">
      <stop
         id="stop20"
         stop-color="#434142"
         offset="0" />
      <stop
         id="stop22"
         stop-color="#D7D8DC"
         offset="1" />
      
      
    </linearGradient>
    <linearGradient
       gradientUnits="userSpaceOnUse"
       y2="29.87"
       x2="8.38"
       y1="7.09"
       x1="24.33"
       id="GradientFill_6">
      <stop
         id="stop29"
         offset="0" />
      <stop
         id="stop31"
         stop-color="#d7d8dc"
         offset="1" />
    </linearGradient>
    <linearGradient
       gradientUnits="userSpaceOnUse"
       y2="30.11"
       x2="8.8"
       y1="7.38"
       x1="23.57"
       id="GradientFill_7">
      <stop
         id="stop34"
         stop-color="#5b5b5f"
         offset="0" />
      <stop
         id="stop36"
         stop-color="#fff"
         offset="1" />
    </linearGradient>
    <radialGradient
       gradientUnits="userSpaceOnUse"
       r="28.11"
       cy="17.91"
       cx="29.18"
       id="GradientFill_8">
      <stop
         id="stop39"
         stop-color="#fff"
         offset="0" />
      <stop
         id="stop41"
         stop-color="#d7d8dc"
         offset="1" />
    </radialGradient>
    <linearGradient
       gradientUnits="userSpaceOnUse"
       y2="16.19"
       x2="20.19"
       y1="21.17"
       x1="12.52"
       id="linear-gradient">
      <stop
         id="stop44"
         stop-color="#434142"
         offset="0" />
      
      <stop
         id="stop58"
         stop-color="#D7D8DC"
         offset="1" />
    </linearGradient>
  </defs>
  <title
     id="title63">Tipo1-c2</title>
  <path
     id="path65"
     d="M16.41,2.59A15.81,15.81,0,0,1,32.22,18.4a16.11,16.11,0,0,1-.62,4.48,27.09,27.09,0,0,1-5.29,9.17c-3,3.7-6.21,7.21-9.24,10.86a.73.73,0,0,1-1.31,0c-3-3.66-6.28-7.16-9.24-10.86a27.09,27.09,0,0,1-5.29-9.17A16.14,16.14,0,0,1,.6,18.4,15.81,15.81,0,0,1,16.41,2.59Z"
     class="cls-1" />
  <path
     id="path67"
     d="M16.41,3.12A15.21,15.21,0,0,1,31.62,18.32c0,8.4-6.27,13.57-15.21,24.37C7.47,31.9,1.2,26.72,1.2,18.32A15.21,15.21,0,0,1,16.41,3.12Z"
     class="cls-2" />
  <path
     id="path69"
     d="M16.41,31.86A13.46,13.46,0,1,0,3,18.4,13.49,13.49,0,0,0,16.41,31.86Z"
     class="cls-3" />
  <path
     id="path71"
     d="M16.41,31.47A13.07,13.07,0,1,0,3.34,18.4,13.1,13.1,0,0,0,16.41,31.47Z"
     class="cls-4" />
  <path
     id="path73"
     d="M16.41,31.34A12.94,12.94,0,1,0,3.47,18.4,13,13,0,0,0,16.41,31.34Z"
     class="cls-5" />
  <path
     id="path75"
     d="M16.41,30.68A12.28,12.28,0,1,0,4.13,18.4,12.3,12.3,0,0,0,16.41,30.68Z"
     class="cls-6" />
  <path
     id="path77"
     d="M16.45,13.72a1.16,1.16,0,1,0-1.16-1.16A1.16,1.16,0,0,0,16.45,13.72Zm1.21.26H15.2a1.49,1.49,0,0,0-1.48,1.51V19a.51.51,0,1,0,1,0V15.79H15v8.92a.68.68,0,1,0,1.35,0V19.53h.23v5.18a.68.68,0,1,0,1.36,0V15.79h.23V19a.5.5,0,1,0,1,0V15.51A1.51,1.51,0,0,0,17.66,14Z"
     class="cls-7" />
</svg>
